<svg width="12" height="12" viewBox="0 0 12 12" fill="none" xmlns="http://www.w3.org/2000/svg">
<path d="M11.4866 0.458003C11.3765 0.386514 11.2533 0.337427 11.1242 0.313546C10.9951 0.289664 10.8625 0.291457 10.7341 0.318821C10.6056 0.346185 10.4839 0.398584 10.3757 0.473025C10.2675 0.547466 10.1751 0.64249 10.1036 0.752669L4.50028 9.38967L1.76761 6.863C1.6712 6.77386 1.55817 6.70458 1.43498 6.65911C1.31179 6.61365 1.18086 6.59289 1.04965 6.59803C0.78466 6.60841 0.534647 6.72362 0.354609 6.91834C0.174571 7.11305 0.0792568 7.37131 0.0896338 7.6363C0.100011 7.90129 0.215229 8.1513 0.409942 8.33134L3.99794 11.6487C3.99794 11.6487 4.10094 11.7373 4.14861 11.7683C4.25877 11.8399 4.38195 11.889 4.51111 11.9129C4.64027 11.9368 4.77287 11.935 4.90134 11.9077C5.02981 11.8803 5.15163 11.8279 5.25983 11.7534C5.36803 11.679 5.4605 11.5839 5.53194 11.4737L11.7813 1.841C11.8528 1.73085 11.9019 1.6077 11.9257 1.47858C11.9496 1.34945 11.9478 1.21689 11.9205 1.08846C11.8931 0.960026 11.8407 0.838244 11.7663 0.730069C11.6918 0.621894 11.5968 0.529444 11.4866 0.458003Z" fill="white"/>
</svg>
