<svg width="17" height="19" viewBox="0 0 17 19" fill="none" xmlns="http://www.w3.org/2000/svg">
<path d="M11.75 9.00016C12.9655 9.00016 14.1313 9.48305 14.9909 10.3426C15.8504 11.2021 16.3333 12.3679 16.3333 13.5835C16.3333 14.7991 15.8504 15.9649 14.9909 16.8244C14.1313 17.6839 12.9655 18.1668 11.75 18.1668C10.5344 18.1668 9.3686 17.6839 8.50905 16.8244C7.64951 15.9649 7.16663 14.7991 7.16663 13.5835C7.16663 12.3679 7.64951 11.2021 8.50905 10.3426C9.3686 9.48305 10.5344 9.00016 11.75 9.00016ZM7.99996 0.458496C8.69174 0.458451 9.35732 0.723125 9.86015 1.19822C10.363 1.67332 10.665 2.32282 10.7041 3.0135L10.7083 3.16683H15.0833C15.2416 3.16688 15.3941 3.22703 15.5098 3.33514C15.6255 3.44325 15.6959 3.59124 15.7066 3.74923C15.7174 3.90721 15.6679 4.06341 15.5679 4.18624C15.468 4.30908 15.3252 4.38941 15.1683 4.411L15.0833 4.41683H14.42L14.0033 8.656C13.62 8.481 13.2116 8.34766 12.7866 8.266L13.1641 4.41683H2.83496L3.89079 15.1435C3.91417 15.3828 4.01965 15.6067 4.18931 15.7771C4.35898 15.9476 4.58239 16.054 4.82163 16.0785L4.92746 16.0835H6.94413C7.18246 16.5427 7.48579 16.9635 7.84079 17.3335H4.92746C4.38368 17.3335 3.85762 17.1401 3.4433 16.7879C3.02898 16.4357 2.75339 15.9477 2.66579 15.411L2.64663 15.266L1.57913 4.41683H0.916626C0.765595 4.41682 0.619674 4.36213 0.50585 4.26286C0.392027 4.16359 0.318 4.02646 0.297459 3.87683L0.291626 3.79183C0.291632 3.6408 0.346328 3.49488 0.445598 3.38105C0.544869 3.26723 0.681998 3.1932 0.831626 3.17266L0.916626 3.16683H5.29163C5.29163 2.44853 5.57697 1.75966 6.08488 1.25175C6.59279 0.743837 7.28166 0.458496 7.99996 0.458496ZM9.42996 11.1577L9.37163 11.2052L9.32413 11.2635C9.27611 11.3331 9.25039 11.4156 9.25039 11.5002C9.25039 11.5847 9.27611 11.6672 9.32413 11.7368L9.37163 11.7952L11.1608 13.5835L9.37163 15.3718L9.32413 15.4302C9.27611 15.4997 9.25039 15.5823 9.25039 15.6668C9.25039 15.7514 9.27611 15.8339 9.32413 15.9035L9.37163 15.9618L9.42996 16.0093C9.49954 16.0573 9.58208 16.0831 9.66663 16.0831C9.75117 16.0831 9.83371 16.0573 9.90329 16.0093L9.96163 15.9618L11.75 14.1727L13.5383 15.9618L13.5966 16.0093C13.6662 16.0573 13.7488 16.0831 13.8333 16.0831C13.9178 16.0831 14.0004 16.0573 14.07 16.0093L14.1283 15.9618L14.1758 15.9035C14.2238 15.8339 14.2495 15.7514 14.2495 15.6668C14.2495 15.5823 14.2238 15.4997 14.1758 15.4302L14.1283 15.3718L12.3391 13.5835L14.1283 11.7952L14.1758 11.7368C14.2238 11.6672 14.2495 11.5847 14.2495 11.5002C14.2495 11.4156 14.2238 11.3331 14.1758 11.2635L14.1283 11.2052L14.07 11.1577C14.0004 11.1096 13.9178 11.0839 13.8333 11.0839C13.7488 11.0839 13.6662 11.1096 13.5966 11.1577L13.5383 11.2052L11.75 12.9943L9.96163 11.2052L9.90329 11.1577C9.84398 11.1166 9.77501 11.0916 9.70314 11.0852C9.63127 11.0787 9.55896 11.0911 9.49329 11.121L9.42996 11.1577ZM7.99996 1.7085C7.63397 1.70851 7.28136 1.84614 7.01213 2.09406C6.74291 2.34199 6.57674 2.68208 6.54663 3.04683L6.54163 3.16683H9.45829C9.45829 2.78006 9.30465 2.40912 9.03116 2.13563C8.75767 1.86214 8.38673 1.7085 7.99996 1.7085Z" fill="#484C51"/>
</svg>
