<svg width="125" height="53" viewBox="0 0 125 53" fill="none" xmlns="http://www.w3.org/2000/svg">
    <path d="M38.6179 1V34H47.7643V7H59.9594V1H38.6179Z" fill="white"/>
    <path d="M0 1V33H8.93608V14.037C13.702 17.8296 14.8935 23.9136 14.8935 26.4815H20.2551C20.8509 21.7407 24.2267 16.6049 26.2125 14.037V33H34.5528V1H26.2125C23.8295 2.18519 19.0636 10.4815 17.2764 14.037C15.4892 9.88889 10.9219 3.76543 8.34034 1H0Z" fill="white"/>
    <path d="M103.659 1H94.5122V32H103.659V17.9623C105.122 17.9623 106.301 17.5723 106.707 17.3774C112.073 20.1849 115.447 28.2956 116.463 32H125C124.512 24.9811 117.886 16.5975 114.634 13.283C120.488 10.4755 122.358 3.92453 122.561 1H113.415C110.488 7.55094 105.691 9.96855 103.659 10.3585V1Z" fill="white"/>
    <path d="M93.4959 17C93.4959 26.3888 86.216 34 77.2357 34C68.2555 34 60.9756 26.3888 60.9756 17C60.9756 7.61116 68.2555 0 77.2357 0C86.216 0 93.4959 7.61116 93.4959 17ZM69.7918 17C69.7918 21.2982 73.1246 24.7826 77.2357 24.7826C81.3469 24.7826 84.6797 21.2982 84.6797 17C84.6797 12.7018 81.3469 9.21738 77.2357 9.21738C73.1246 9.21738 69.7918 12.7018 69.7918 17Z" fill="white"/>
    <path d="M1.63431 38.1553L3.36331 42.3815L5.08818 38.1553H6.43433V43.669H5.39693V41.8513L5.49985 39.4201L3.72969 43.669H2.98457L1.21853 39.4239L1.32145 41.8513V43.669H0.284049V38.1553H1.63431Z" fill="white"/>
    <path d="M7.38528 41.5824C7.38528 41.181 7.47173 40.82 7.64463 40.4994C7.81753 40.1762 8.06041 39.9288 8.37327 39.7571C8.68614 39.5829 9.04566 39.4958 9.45184 39.4958C10.0529 39.4958 10.54 39.6738 10.9133 40.0298C11.2892 40.3858 11.4923 40.8579 11.5225 41.4461L11.5266 41.662C11.5266 42.0659 11.4416 42.4269 11.2714 42.745C11.104 43.0631 10.8625 43.3093 10.5469 43.4835C10.234 43.6577 9.87174 43.7448 9.46007 43.7448C8.8316 43.7448 8.32799 43.5529 7.94926 43.1691C7.57327 42.7829 7.38528 42.2691 7.38528 41.6279V41.5824ZM8.38562 41.662C8.38562 42.0836 8.48031 42.4143 8.66967 42.6541C8.85904 42.8914 9.12251 43.0101 9.46007 43.0101C9.79764 43.0101 10.0597 42.8889 10.2464 42.6466C10.4357 42.4042 10.5304 42.0495 10.5304 41.5824C10.5304 41.1684 10.433 40.8402 10.2381 40.5978C10.046 40.3555 9.78392 40.2343 9.45184 40.2343C9.12525 40.2343 8.8659 40.3542 8.67379 40.594C8.48168 40.8314 8.38562 41.1873 8.38562 41.662Z" fill="white"/>
    <path d="M14.2025 43.0101C14.4522 43.0101 14.6594 42.9432 14.8241 42.8094C14.9887 42.6756 15.0766 42.5102 15.0875 42.3133H16.0303C16.0193 42.5683 15.9328 42.8069 15.7709 43.029C15.609 43.2487 15.3894 43.4229 15.1122 43.5516C14.835 43.6804 14.5359 43.7448 14.2148 43.7448C13.5918 43.7448 13.0978 43.5592 12.7328 43.1881C12.3678 42.817 12.1853 42.3045 12.1853 41.6506V41.5559C12.1853 40.9323 12.3664 40.4337 12.7287 40.0601C13.091 39.6839 13.585 39.4958 14.2107 39.4958C14.7404 39.4958 15.1712 39.6385 15.5033 39.9238C15.8381 40.2065 16.0138 40.5789 16.0303 41.0409H15.0875C15.0766 40.8061 14.9887 40.613 14.8241 40.4615C14.6622 40.31 14.4549 40.2343 14.2025 40.2343C13.8786 40.2343 13.6289 40.3428 13.4532 40.56C13.2776 40.7746 13.1884 41.1015 13.1856 41.5408V41.6885C13.1856 42.1328 13.2721 42.4648 13.445 42.6844C13.6206 42.9015 13.8731 43.0101 14.2025 43.0101Z" fill="white"/>
    <path d="M18.3685 42.0482H17.8622V43.669H16.8618V39.5716H17.8622V41.2075H18.3026L19.5335 39.5716H20.7685L19.1589 41.5332L20.9044 43.669H19.6035L18.3685 42.0482Z" fill="white"/>
    <path d="M21.0279 41.5824C21.0279 41.181 21.1143 40.82 21.2872 40.4994C21.4601 40.1762 21.703 39.9288 22.0159 39.7571C22.3287 39.5829 22.6883 39.4958 23.0944 39.4958C23.6955 39.4958 24.1826 39.6738 24.5558 40.0298C24.9318 40.3858 25.1349 40.8579 25.1651 41.4461L25.1692 41.662C25.1692 42.0659 25.0841 42.4269 24.914 42.745C24.7466 43.0631 24.5051 43.3093 24.1895 43.4835C23.8766 43.6577 23.5143 43.7448 23.1027 43.7448C22.4742 43.7448 21.9706 43.5529 21.5919 43.1691C21.2159 42.7829 21.0279 42.2691 21.0279 41.6279V41.5824ZM22.0282 41.662C22.0282 42.0836 22.1229 42.4143 22.3123 42.6541C22.5016 42.8914 22.7651 43.0101 23.1027 43.0101C23.4402 43.0101 23.7023 42.8889 23.8889 42.6466C24.0783 42.4042 24.173 42.0495 24.173 41.5824C24.173 41.1684 24.0756 40.8402 23.8807 40.5978C23.6886 40.3555 23.4265 40.2343 23.0944 40.2343C22.7678 40.2343 22.5085 40.3542 22.3164 40.594C22.1243 40.8314 22.0282 41.1873 22.0282 41.662Z" fill="white"/>
    <path d="M26.0914 43.669V39.5716H27.8986C28.5078 39.5716 28.9716 39.67 29.29 39.867C29.6084 40.0613 29.7675 40.3416 29.7675 40.7076C29.7675 40.897 29.703 41.0674 29.574 41.2189C29.4478 41.3678 29.2598 41.4827 29.0101 41.5635C29.301 41.619 29.5315 41.7314 29.7017 41.9005C29.8718 42.0697 29.9569 42.2691 29.9569 42.4989C29.9569 42.8801 29.8032 43.1704 29.4958 43.3699C29.1912 43.5693 28.7521 43.669 28.1785 43.669H26.0914ZM27.0917 41.9233V42.9419H28.1867C28.6999 42.9419 28.9565 42.7728 28.9565 42.4345C28.9565 42.0937 28.6958 41.9233 28.1744 41.9233H27.0917ZM27.0917 41.2643H27.915C28.4831 41.2643 28.7672 41.1103 28.7672 40.8023C28.7672 40.4792 28.4982 40.3125 27.9603 40.3024H27.0917V41.2643Z" fill="white"/>
    <path d="M32.6533 43.0101C32.903 43.0101 33.1103 42.9432 33.2749 42.8094C33.4396 42.6756 33.5274 42.5102 33.5384 42.3133H34.4811C34.4701 42.5683 34.3837 42.8069 34.2217 43.029C34.0598 43.2487 33.8403 43.4229 33.5631 43.5516C33.2859 43.6804 32.9868 43.7448 32.6657 43.7448C32.0427 43.7448 31.5487 43.5592 31.1837 43.1881C30.8186 42.817 30.6361 42.3045 30.6361 41.6506V41.5559C30.6361 40.9323 30.8173 40.4337 31.1795 40.0601C31.5418 39.6839 32.0358 39.4958 32.6615 39.4958C33.1912 39.4958 33.6221 39.6385 33.9542 39.9238C34.289 40.2065 34.4646 40.5789 34.4811 41.0409H33.5384C33.5274 40.8061 33.4396 40.613 33.2749 40.4615C33.113 40.31 32.9058 40.2343 32.6533 40.2343C32.3295 40.2343 32.0797 40.3428 31.9041 40.56C31.7284 40.7746 31.6392 41.1015 31.6365 41.5408V41.6885C31.6365 42.1328 31.7229 42.4648 31.8958 42.6844C32.0715 42.9015 32.324 43.0101 32.6533 43.0101Z" fill="white"/>
    <path d="M36.8194 42.0482H36.313V43.669H35.3127V39.5716H36.313V41.2075H36.7535L37.9844 39.5716H39.2194L37.6098 41.5332L39.3552 43.669H38.0544L36.8194 42.0482Z" fill="white"/>
    <path d="M42.6856 39.5716H43.6818V43.669H42.6856V40.9349L40.9401 43.669H39.9439V39.5716H40.9401V42.3057L42.6856 39.5716Z" fill="white"/>
    <path d="M47.5268 39.5716H48.523V43.669H47.5268V40.9349L45.7813 43.669H44.7851V39.5716H45.7813V42.3057L47.5268 39.5716ZM47.9961 38C47.9961 38.3181 47.8753 38.5756 47.6338 38.7725C47.3923 38.9695 47.0698 39.0679 46.6664 39.0679C46.263 39.0679 45.9405 38.9695 45.699 38.7725C45.4575 38.5756 45.3367 38.3181 45.3367 38H46.0859C46.0859 38.1666 46.1367 38.2966 46.2383 38.3901C46.3425 38.4809 46.4853 38.5264 46.6664 38.5264C46.8475 38.5264 46.9889 38.4809 47.0904 38.3901C47.192 38.2966 47.2427 38.1666 47.2427 38H47.9961Z" fill="white"/>
    <path d="M54.6527 40.3138H52.7179V43.669H51.7216V39.5716H54.6527V40.3138Z" fill="white"/>
    <path d="M54.9491 41.5824C54.9491 41.181 55.0356 40.82 55.2085 40.4994C55.3814 40.1762 55.6242 39.9288 55.9371 39.7571C56.25 39.5829 56.6095 39.4958 57.0157 39.4958C57.6167 39.4958 58.1038 39.6738 58.4771 40.0298C58.8531 40.3858 59.0562 40.8579 59.0863 41.4461L59.0905 41.662C59.0905 42.0659 59.0054 42.4269 58.8352 42.745C58.6678 43.0631 58.4263 43.3093 58.1107 43.4835C57.7978 43.6577 57.4356 43.7448 57.0239 43.7448C56.3954 43.7448 55.8918 43.5529 55.5131 43.1691C55.1371 42.7829 54.9491 42.2691 54.9491 41.6279V41.5824ZM55.9494 41.662C55.9494 42.0836 56.0441 42.4143 56.2335 42.6541C56.4229 42.8914 56.6863 43.0101 57.0239 43.0101C57.3615 43.0101 57.6236 42.8889 57.8102 42.6466C57.9995 42.4042 58.0942 42.0495 58.0942 41.5824C58.0942 41.1684 57.9968 40.8402 57.8019 40.5978C57.6098 40.3555 57.3477 40.2343 57.0157 40.2343C56.6891 40.2343 56.4297 40.3542 56.2376 40.594C56.0455 40.8314 55.9494 41.1873 55.9494 41.662Z" fill="white"/>
    <path d="M61.7663 43.0101C62.016 43.0101 62.2232 42.9432 62.3879 42.8094C62.5526 42.6756 62.6404 42.5102 62.6514 42.3133H63.5941C63.5831 42.5683 63.4966 42.8069 63.3347 43.029C63.1728 43.2487 62.9533 43.4229 62.6761 43.5516C62.3989 43.6804 62.0997 43.7448 61.7786 43.7448C61.1556 43.7448 60.6616 43.5592 60.2966 43.1881C59.9316 42.817 59.7491 42.3045 59.7491 41.6506V41.5559C59.7491 40.9323 59.9303 40.4337 60.2925 40.0601C60.6548 39.6839 61.1488 39.4958 61.7745 39.4958C62.3042 39.4958 62.7351 39.6385 63.0671 39.9238C63.402 40.2065 63.5776 40.5789 63.5941 41.0409H62.6514C62.6404 40.8061 62.5526 40.613 62.3879 40.4615C62.226 40.31 62.0188 40.2343 61.7663 40.2343C61.4424 40.2343 61.1927 40.3428 61.0171 40.56C60.8414 40.7746 60.7522 41.1015 60.7495 41.5408V41.6885C60.7495 42.1328 60.8359 42.4648 61.0088 42.6844C61.1845 42.9015 61.437 43.0101 61.7663 43.0101Z" fill="white"/>
    <path d="M65.9076 42.3512L66.8133 39.5716H67.8795L66.1094 44.2901C65.8377 44.9793 65.3766 45.3239 64.7262 45.3239C64.5807 45.3239 64.4202 45.3012 64.2445 45.2557V44.5438L64.4339 44.5552C64.6864 44.5552 64.8757 44.5122 65.002 44.4264C65.131 44.3431 65.2325 44.2017 65.3066 44.0023L65.4507 43.6501L63.8864 39.5716H64.9649L65.9076 42.3512Z" fill="white"/>
    <path d="M68.2459 42.9344C68.5231 42.6491 68.7083 42.3789 68.8016 42.124C68.8977 41.8664 68.9553 41.5382 68.9745 41.1394L69.0322 39.5716H72.1238V42.9344H72.7413V44.8884H71.745V43.669H68.8881V44.8884H67.8754L67.8795 42.9344H68.2459ZM69.4191 42.9344H71.1276V40.363H70.0037L69.9749 41.1469C69.9365 41.8993 69.7512 42.4951 69.4191 42.9344Z" fill="white"/>
    <path d="M76.1169 43.669C76.073 43.5908 76.0346 43.4633 76.0017 43.2865C75.6833 43.592 75.2936 43.7448 74.8325 43.7448C74.3852 43.7448 74.0202 43.6274 73.7375 43.3926C73.4548 43.1578 73.3135 42.8675 73.3135 42.5216C73.3135 42.0848 73.4891 41.7503 73.8404 41.5181C74.1945 41.2833 74.6994 41.1659 75.3554 41.1659H75.9687V40.897C75.9687 40.6849 75.9042 40.5158 75.7753 40.3895C75.6463 40.2608 75.45 40.1964 75.1866 40.1964C74.9588 40.1964 74.7722 40.2494 74.6267 40.3555C74.4813 40.459 74.4085 40.5915 74.4085 40.7531H73.4082C73.4082 40.5284 73.4891 40.3189 73.6511 40.1245C73.813 39.9275 74.0325 39.7735 74.3097 39.6625C74.5897 39.5514 74.9012 39.4958 75.2442 39.4958C75.7656 39.4958 76.1814 39.617 76.4916 39.8594C76.8017 40.0992 76.9609 40.4375 76.9691 40.8743V42.7223C76.9691 43.0909 77.0253 43.385 77.1379 43.6046V43.669H76.1169ZM75.0178 43.0063C75.2154 43.0063 75.4006 42.9621 75.5735 42.8738C75.7492 42.7854 75.8809 42.6668 75.9687 42.5178V41.7453H75.4295C75.059 41.7453 74.7804 41.8046 74.5938 41.9233C74.4072 42.0419 74.3138 42.2098 74.3138 42.4269C74.3138 42.6036 74.377 42.745 74.5032 42.851C74.6322 42.9546 74.8037 43.0063 75.0178 43.0063Z" fill="white"/>
    <path d="M81.9173 41.662C81.9173 42.2956 81.7609 42.8018 81.448 43.1805C81.1351 43.5567 80.7152 43.7448 80.1883 43.7448C79.6998 43.7448 79.3087 43.5971 79.0151 43.3017V45.2444H78.0147V39.5716H78.9368L78.978 39.9881C79.2717 39.6599 79.671 39.4958 80.176 39.4958C80.7194 39.4958 81.1447 39.6827 81.4521 40.0563C81.7622 40.4274 81.9173 40.9437 81.9173 41.6052V41.662ZM80.9211 41.5824C80.9211 41.1734 80.8319 40.849 80.6535 40.6092C80.4778 40.3694 80.2254 40.2494 79.896 40.2494C79.4871 40.2494 79.1935 40.4047 79.0151 40.7152V42.5329C79.1962 42.851 79.4926 43.0101 79.9043 43.0101C80.2226 43.0101 80.471 42.8927 80.6494 42.6579C80.8305 42.4206 80.9211 42.0621 80.9211 41.5824Z" fill="white"/>
    <path d="M84.5972 43.0101C84.847 43.0101 85.0542 42.9432 85.2189 42.8094C85.3835 42.6756 85.4714 42.5102 85.4823 42.3133H86.425C86.4141 42.5683 86.3276 42.8069 86.1657 43.029C86.0038 43.2487 85.7842 43.4229 85.507 43.5516C85.2298 43.6804 84.9307 43.7448 84.6096 43.7448C83.9866 43.7448 83.4926 43.5592 83.1276 43.1881C82.7626 42.817 82.5801 42.3045 82.5801 41.6506V41.5559C82.5801 40.9323 82.7612 40.4337 83.1235 40.0601C83.4857 39.6839 83.9798 39.4958 84.6055 39.4958C85.1352 39.4958 85.566 39.6385 85.8981 39.9238C86.2329 40.2065 86.4086 40.5789 86.425 41.0409H85.4823C85.4714 40.8061 85.3835 40.613 85.2189 40.4615C85.0569 40.31 84.8497 40.2343 84.5972 40.2343C84.2734 40.2343 84.0237 40.3428 83.848 40.56C83.6724 40.7746 83.5832 41.1015 83.5804 41.5408V41.6885C83.5804 42.1328 83.6669 42.4648 83.8398 42.6844C84.0154 42.9015 84.2679 43.0101 84.5972 43.0101Z" fill="white"/>
    <path d="M90.6858 40.3024H89.2408V43.669H88.2405V40.3024H86.812V39.5716H90.6858V40.3024Z" fill="white"/>
    <path d="M91.4309 43.669V39.5716H93.2381C93.8474 39.5716 94.3112 39.67 94.6295 39.867C94.9479 40.0613 95.1071 40.3416 95.1071 40.7076C95.1071 40.897 95.0426 41.0674 94.9136 41.2189C94.7873 41.3678 94.5993 41.4827 94.3496 41.5635C94.6405 41.619 94.871 41.7314 95.0412 41.9005C95.2114 42.0697 95.2964 42.2691 95.2964 42.4989C95.2964 42.8801 95.1427 43.1704 94.8354 43.3699C94.5307 43.5693 94.0916 43.669 93.518 43.669H91.4309ZM92.4312 41.9233V42.9419H93.5263C94.0395 42.9419 94.2961 42.7728 94.2961 42.4345C94.2961 42.0937 94.0354 41.9233 93.5139 41.9233H92.4312ZM92.4312 41.2643H93.2546C93.8227 41.2643 94.1067 41.1103 94.1067 40.8023C94.1067 40.4792 93.8378 40.3125 93.2999 40.3024H92.4312V41.2643Z" fill="white"/>
    <path d="M98.1246 43.7448C97.4906 43.7448 96.976 43.5617 96.5808 43.1957C96.1884 42.8271 95.9921 42.3373 95.9921 41.7263V41.6127C95.9921 41.2037 96.0772 40.8389 96.2474 40.5183C96.4203 40.1952 96.6618 39.944 96.9719 39.7647C97.282 39.5855 97.6278 39.4958 98.0093 39.4958C98.6158 39.4958 99.0838 39.6738 99.4131 40.0298C99.7452 40.3858 99.9112 40.8894 99.9112 41.5408V41.9119H97.0007C97.0309 42.2502 97.153 42.5178 97.3671 42.7147C97.5839 42.9116 97.8556 43.0101 98.1822 43.0101C98.6405 43.0101 99.0138 42.8397 99.3019 42.4989L99.8412 42.9722C99.6628 43.2171 99.4241 43.4077 99.1249 43.5441C98.8285 43.6779 98.4951 43.7448 98.1246 43.7448ZM98.0052 40.2343C97.7307 40.2343 97.5084 40.3226 97.3383 40.4994C97.1709 40.6761 97.0639 40.9222 97.0172 41.2378H98.9232V41.1697C98.9012 40.8617 98.8121 40.6294 98.6556 40.4729C98.4992 40.3138 98.2824 40.2343 98.0052 40.2343Z" fill="white"/>
    <path d="M104.464 43.669H103.464V42.0141H101.731V43.669H100.73V39.5716H101.731V41.2795H103.464V39.5716H104.464V43.669Z" fill="white"/>
    <path d="M109.305 43.669H108.305V42.0141H106.572V43.669H105.572V39.5716H106.572V41.2795H108.305V39.5716H109.305V43.669Z" fill="white"/>
    <path d="M111.45 40.8743H112.43C112.795 40.8743 113.113 40.9323 113.385 41.0485C113.657 41.1646 113.863 41.3274 114.003 41.537C114.145 41.7465 114.217 41.9902 114.217 42.2679C114.217 42.6895 114.055 43.0278 113.731 43.2828C113.407 43.5377 112.976 43.6665 112.438 43.669H110.45V39.5716H111.45V40.8743ZM115.958 43.669H114.958V39.5716H115.958V43.669ZM111.45 41.6127V42.9344H112.426C112.67 42.9344 112.862 42.8788 113.002 42.7677C113.145 42.6541 113.216 42.4938 113.216 42.2868C113.216 42.0798 113.146 41.9169 113.006 41.7983C112.869 41.6771 112.682 41.6152 112.446 41.6127H111.45Z" fill="white"/>
    <path d="M119.939 39.5716H120.935V43.669H119.939V40.9349L118.193 43.669H117.197V39.5716H118.193V42.3057L119.939 39.5716ZM120.408 38C120.408 38.3181 120.287 38.5756 120.046 38.7725C119.804 38.9695 119.482 39.0679 119.078 39.0679C118.675 39.0679 118.352 38.9695 118.111 38.7725C117.869 38.5756 117.749 38.3181 117.749 38H118.498C118.498 38.1666 118.549 38.2966 118.65 38.3901C118.755 38.4809 118.897 38.5264 119.078 38.5264C119.259 38.5264 119.401 38.4809 119.502 38.3901C119.604 38.2966 119.655 38.1666 119.655 38H120.408Z" fill="white"/>
    <path d="M0 49.338C0 48.9366 0.0864497 48.5756 0.259349 48.255C0.432249 47.9318 0.675131 47.6844 0.987997 47.5127C1.30086 47.3386 1.66038 47.2515 2.06656 47.2515C2.66759 47.2515 3.15473 47.4294 3.52797 47.7854C3.90396 48.1414 4.10705 48.6135 4.13724 49.2017L4.14135 49.4176C4.14135 49.8215 4.05628 50.1825 3.88612 50.5006C3.71871 50.8187 3.4772 51.0649 3.16159 51.2391C2.84872 51.4133 2.48646 51.5004 2.07479 51.5004C1.44632 51.5004 0.942714 51.3085 0.563982 50.9248C0.187994 50.5385 0 50.0247 0 49.3835V49.338ZM1.00035 49.4176C1.00035 49.8392 1.09503 50.1699 1.2844 50.4097C1.47376 50.6471 1.73723 50.7657 2.07479 50.7657C2.41236 50.7657 2.67445 50.6445 2.86107 50.4022C3.05044 50.1598 3.14512 49.8051 3.14512 49.338C3.14512 48.924 3.0477 48.5958 2.85284 48.3534C2.66073 48.1111 2.39864 47.9899 2.06656 47.9899C1.73997 47.9899 1.48062 48.1098 1.28851 48.3497C1.0964 48.587 1.00035 48.9429 1.00035 49.4176Z" fill="white"/>
    <path d="M7.08476 47.5544C7.64463 47.5544 8.09334 47.7273 8.43091 48.0732C8.76847 48.4166 8.93726 48.8836 8.93726 49.4744V49.5198C8.93726 50.1106 8.75338 50.589 8.38562 50.9551C8.02061 51.3211 7.52387 51.5042 6.8954 51.5042C6.28339 51.5042 5.78939 51.3173 5.4134 50.9437C5.03741 50.5701 4.84942 50.0601 4.84942 49.4138V49.1487C4.84942 48.2651 5.01957 47.5658 5.35988 47.0507C5.70019 46.5357 6.20791 46.2138 6.88305 46.0851C7.26178 46.0144 7.50603 45.9399 7.61581 45.8617C7.72833 45.7809 7.78459 45.6723 7.78459 45.536H8.59146C8.59146 45.791 8.54617 45.998 8.45561 46.157C8.36504 46.3161 8.22645 46.4461 8.03983 46.5471C7.8532 46.6455 7.53211 46.739 7.07653 46.8273C6.65937 46.9081 6.34102 47.052 6.12147 47.259C5.90465 47.466 5.7592 47.7526 5.6851 48.1187C6.08304 47.7425 6.5496 47.5544 7.08476 47.5544ZM6.88716 48.2929C6.56332 48.2929 6.30946 48.3938 6.12558 48.5958C5.9417 48.7953 5.84977 49.1033 5.84977 49.5198C5.84977 49.9137 5.94033 50.2204 6.12147 50.44C6.3026 50.6597 6.56058 50.7695 6.8954 50.7695C7.22747 50.7695 7.48408 50.6597 7.66521 50.44C7.84909 50.2179 7.94103 49.8846 7.94103 49.4403C7.94103 49.0868 7.84909 48.8079 7.66521 48.6034C7.48408 48.3964 7.22473 48.2929 6.88716 48.2929Z" fill="white"/>
    <path d="M13.5479 49.4176C13.5479 50.0512 13.3915 50.5574 13.0786 50.9361C12.7657 51.3123 12.3458 51.5004 11.8189 51.5004C11.3304 51.5004 10.9393 51.3527 10.6457 51.0573V53H9.64532V47.3272H10.5675L10.6086 47.7438C10.9023 47.4156 11.3016 47.2515 11.8066 47.2515C12.35 47.2515 12.7754 47.4383 13.0827 47.8119C13.3928 48.183 13.5479 48.6993 13.5479 49.3608V49.4176ZM12.5517 49.338C12.5517 48.9291 12.4625 48.6046 12.2841 48.3648C12.1085 48.125 11.856 48.005 11.5266 48.005C11.1177 48.005 10.8241 48.1603 10.6457 48.4708V50.2886C10.8268 50.6067 11.1232 50.7657 11.5349 50.7657C11.8532 50.7657 12.1016 50.6483 12.28 50.4135C12.4611 50.1762 12.5517 49.8177 12.5517 49.338Z" fill="white"/>
    <path d="M17.0594 51.4246C17.0155 51.3464 16.9771 51.2189 16.9441 51.0422C16.6258 51.3476 16.2361 51.5004 15.775 51.5004C15.3277 51.5004 14.9627 51.383 14.68 51.1482C14.3973 50.9134 14.256 50.6231 14.256 50.2772C14.256 49.8404 14.4316 49.5059 14.7829 49.2737C15.1369 49.0389 15.6419 48.9215 16.2978 48.9215H16.9112V48.6526C16.9112 48.4405 16.8467 48.2714 16.7177 48.1452C16.5887 48.0164 16.3925 47.952 16.1291 47.952C15.9013 47.952 15.7146 48.005 15.5692 48.1111C15.4237 48.2146 15.351 48.3471 15.351 48.5087H14.3507C14.3507 48.284 14.4316 48.0745 14.5935 47.8801C14.7555 47.6832 14.975 47.5292 15.2522 47.4181C15.5321 47.307 15.8436 47.2515 16.1867 47.2515C16.7081 47.2515 17.1239 47.3726 17.434 47.615C17.7442 47.8548 17.9033 48.1931 17.9116 48.6299V50.4779C17.9116 50.8465 17.9678 51.1406 18.0803 51.3603V51.4246H17.0594ZM15.9603 50.7619C16.1579 50.7619 16.3431 50.7177 16.516 50.6294C16.6917 50.541 16.8234 50.4224 16.9112 50.2734V49.5009H16.3719C16.0014 49.5009 15.7229 49.5602 15.5363 49.6789C15.3496 49.7975 15.2563 49.9654 15.2563 50.1825C15.2563 50.3593 15.3194 50.5006 15.4457 50.6067C15.5747 50.7102 15.7462 50.7619 15.9603 50.7619Z" fill="white"/>
    <path d="M22.3328 48.4481C22.3328 48.6299 22.2725 48.7978 22.1517 48.9518C22.0337 49.1033 21.8663 49.2244 21.6495 49.3153C22.16 49.4794 22.4152 49.7963 22.4152 50.2658C22.4152 50.642 22.2491 50.9424 21.9171 51.1671C21.585 51.3893 21.1404 51.5004 20.5833 51.5004C20.243 51.5004 19.9328 51.4486 19.6529 51.3451C19.373 51.2391 19.1548 51.0901 18.9984 50.8983C18.8419 50.7039 18.7637 50.4741 18.7637 50.209H19.7599C19.7599 50.3757 19.8409 50.5158 20.0028 50.6294C20.1647 50.7405 20.3692 50.796 20.6162 50.796C20.8605 50.796 21.0539 50.7443 21.1967 50.6407C21.3421 50.5347 21.4148 50.3971 21.4148 50.228C21.4148 50.0285 21.3517 49.8846 21.2255 49.7963C21.0992 49.7079 20.9044 49.6637 20.6409 49.6637H19.9246V49.001H20.6656C21.1129 48.996 21.3366 48.8268 21.3366 48.4936C21.3366 48.3269 21.2721 48.1969 21.1431 48.1035C21.0141 48.0101 20.8371 47.9634 20.6121 47.9634C20.3925 47.9634 20.2073 48.0139 20.0563 48.1149C19.9054 48.2133 19.8299 48.3383 19.8299 48.4898H18.8337C18.8337 48.1288 18.9984 47.8334 19.3277 47.6036C19.657 47.3714 20.0756 47.2552 20.5833 47.2552C21.1349 47.2552 21.5644 47.3587 21.8718 47.5658C22.1792 47.7728 22.3328 48.0669 22.3328 48.4481Z" fill="white"/>
    <path d="M23.078 49.338C23.078 48.9366 23.1644 48.5756 23.3373 48.255C23.5102 47.9318 23.7531 47.6844 24.066 47.5127C24.3788 47.3386 24.7383 47.2515 25.1445 47.2515C25.7456 47.2515 26.2327 47.4294 26.6059 47.7854C26.9819 48.1414 27.185 48.6135 27.2152 49.2017L27.2193 49.4176C27.2193 49.8215 27.1342 50.1825 26.9641 50.5006C26.7967 50.8187 26.5552 51.0649 26.2396 51.2391C25.9267 51.4133 25.5644 51.5004 25.1528 51.5004C24.5243 51.5004 24.0207 51.3085 23.6419 50.9248C23.266 50.5385 23.078 50.0247 23.078 49.3835V49.338ZM24.0783 49.4176C24.0783 49.8392 24.173 50.1699 24.3624 50.4097C24.5517 50.6471 24.8152 50.7657 25.1528 50.7657C25.4903 50.7657 25.7524 50.6445 25.939 50.4022C26.1284 50.1598 26.2231 49.8051 26.2231 49.338C26.2231 48.924 26.1257 48.5958 25.9308 48.3534C25.7387 48.1111 25.4766 47.9899 25.1445 47.9899C24.8179 47.9899 24.5586 48.1098 24.3665 48.3497C24.1744 48.587 24.0783 48.9429 24.0783 49.4176Z" fill="white"/>
    <path d="M28.1414 51.4246V47.3272H29.9487C30.5579 47.3272 31.0217 47.4256 31.3401 47.6226C31.6584 47.817 31.8176 48.0972 31.8176 48.4633C31.8176 48.6526 31.7531 48.823 31.6241 48.9745C31.4979 49.1235 31.3099 49.2383 31.0602 49.3191C31.3511 49.3747 31.5816 49.487 31.7518 49.6561C31.9219 49.8253 32.007 50.0247 32.007 50.2545C32.007 50.6357 31.8533 50.926 31.5459 51.1255C31.2413 51.3249 30.8022 51.4246 30.2286 51.4246H28.1414ZM29.1418 49.6789V50.6976H30.2368C30.75 50.6976 31.0066 50.5284 31.0066 50.1901C31.0066 49.8493 30.7459 49.6789 30.2245 49.6789H29.1418ZM29.1418 49.0199H29.9651C30.5332 49.0199 30.8173 48.8659 30.8173 48.5579C30.8173 48.2348 30.5483 48.0682 30.0104 48.0581H29.1418V49.0199Z" fill="white"/>
    <path d="M35.535 51.4246C35.4911 51.3464 35.4526 51.2189 35.4197 51.0422C35.1013 51.3476 34.7116 51.5004 34.2506 51.5004C33.8032 51.5004 33.4382 51.383 33.1555 51.1482C32.8729 50.9134 32.7315 50.6231 32.7315 50.2772C32.7315 49.8404 32.9072 49.5059 33.2584 49.2737C33.6125 49.0389 34.1175 48.9215 34.7734 48.9215H35.3868V48.6526C35.3868 48.4405 35.3223 48.2714 35.1933 48.1452C35.0643 48.0164 34.8681 47.952 34.6046 47.952C34.3768 47.952 34.1902 48.005 34.0447 48.1111C33.8993 48.2146 33.8265 48.3471 33.8265 48.5087H32.8262C32.8262 48.284 32.9072 48.0745 33.0691 47.8801C33.231 47.6832 33.4506 47.5292 33.7277 47.4181C34.0077 47.307 34.3192 47.2515 34.6622 47.2515C35.1837 47.2515 35.5995 47.3726 35.9096 47.615C36.2197 47.8548 36.3789 48.1931 36.3871 48.6299V50.4779C36.3871 50.8465 36.4434 51.1406 36.5559 51.3603V51.4246H35.535ZM34.4358 50.7619C34.6334 50.7619 34.8187 50.7177 34.9916 50.6294C35.1672 50.541 35.2989 50.4224 35.3868 50.2734V49.5009H34.8475C34.477 49.5009 34.1984 49.5602 34.0118 49.6789C33.8252 49.7975 33.7319 49.9654 33.7319 50.1825C33.7319 50.3593 33.795 50.5006 33.9212 50.6067C34.0502 50.7102 34.2217 50.7619 34.4358 50.7619Z" fill="white"/>
    <path d="M40.8743 48.0581H39.4293V51.4246H38.429V48.0581H37.0005V47.3272H40.8743V48.0581Z" fill="white"/>
    <path d="M43.2413 51.5004C42.6074 51.5004 42.0928 51.3173 41.6976 50.9513C41.3051 50.5827 41.1089 50.0929 41.1089 49.4819V49.3683C41.1089 48.9594 41.194 48.5945 41.3641 48.2739C41.537 47.9508 41.7786 47.6996 42.0887 47.5203C42.3988 47.3411 42.7446 47.2515 43.1261 47.2515C43.7326 47.2515 44.2005 47.4294 44.5299 47.7854C44.8619 48.1414 45.028 48.645 45.028 49.2964V49.6675H42.1175C42.1477 50.0058 42.2698 50.2734 42.4839 50.4703C42.7007 50.6673 42.9724 50.7657 43.299 50.7657C43.7573 50.7657 44.1305 50.5953 44.4187 50.2545L44.958 50.7278C44.7796 50.9727 44.5408 51.1633 44.2417 51.2997C43.9453 51.4335 43.6118 51.5004 43.2413 51.5004ZM43.122 47.9899C42.8475 47.9899 42.6252 48.0783 42.4551 48.255C42.2876 48.4317 42.1806 48.6779 42.134 48.9934H44.04V48.9253C44.018 48.6173 43.9288 48.385 43.7724 48.2285C43.616 48.0694 43.3991 47.9899 43.122 47.9899Z" fill="white"/>
    <path d="M49.5933 47.3272V51.4246H48.593V48.0694H47.3333L47.251 49.4971C47.1988 50.1838 47.0547 50.6774 46.8187 50.9778C46.5854 51.2757 46.2273 51.4246 45.7443 51.4246H45.4355L45.4314 50.6597L45.6372 50.6407C45.8568 50.613 46.016 50.4905 46.1148 50.2734C46.2163 50.0538 46.2808 49.6549 46.3082 49.0767L46.3906 47.3272H49.5933Z" fill="white"/>
    <path d="M51.734 48.6299H52.7138C53.0788 48.6299 53.3971 48.688 53.6688 48.8041C53.9405 48.9202 54.1464 49.0831 54.2863 49.2926C54.429 49.5021 54.5004 49.7458 54.5004 50.0235C54.5004 50.4451 54.3385 50.7834 54.0146 51.0384C53.6908 51.2934 53.2599 51.4221 52.722 51.4246H50.7336V47.3272H51.734V48.6299ZM51.734 49.3683V50.69H52.7096C52.9539 50.69 53.146 50.6344 53.286 50.5234C53.4287 50.4097 53.5 50.2494 53.5 50.0424C53.5 49.8354 53.4301 49.6726 53.2901 49.5539C53.1529 49.4327 52.9662 49.3709 52.7302 49.3683H51.734Z" fill="white"/>
    <path d="M59.074 51.4246H58.0736V49.7698H56.3405V51.4246H55.3402V47.3272H56.3405V49.0351H58.0736V47.3272H59.074V51.4246Z" fill="white"/>
    <path d="M61.2188 48.6299H62.1985C62.5635 48.6299 62.8819 48.688 63.1536 48.8041C63.4253 48.9202 63.6311 49.0831 63.7711 49.2926C63.9138 49.5021 63.9852 49.7458 63.9852 50.0235C63.9852 50.4451 63.8232 50.7834 63.4994 51.0384C63.1755 51.2934 62.7447 51.4221 62.2068 51.4246H60.2184V47.3272H61.2188V48.6299ZM65.7265 51.4246H64.7262V47.3272H65.7265V51.4246ZM61.2188 49.3683V50.69H62.1944C62.4387 50.69 62.6308 50.6344 62.7707 50.5234C62.9135 50.4097 62.9848 50.2494 62.9848 50.0424C62.9848 49.8354 62.9148 49.6726 62.7749 49.5539C62.6376 49.4327 62.451 49.3709 62.215 49.3683H61.2188Z" fill="white"/>
    <path d="M69.7073 47.3272H70.7035V51.4246H69.7073V48.6905L67.9618 51.4246H66.9656V47.3272H67.9618V50.0613L69.7073 47.3272ZM70.1766 45.7556C70.1766 46.0737 70.0559 46.3312 69.8143 46.5281C69.5728 46.7251 69.2504 46.8235 68.8469 46.8235C68.4435 46.8235 68.121 46.7251 67.8795 46.5281C67.638 46.3312 67.5173 46.0737 67.5173 45.7556H68.2665C68.2665 45.9222 68.3173 46.0523 68.4188 46.1457C68.5231 46.2366 68.6658 46.282 68.8469 46.282C69.0281 46.282 69.1694 46.2366 69.2709 46.1457C69.3725 46.0523 69.4233 45.9222 69.4233 45.7556H70.1766Z" fill="white"/>
    <path d="M75.45 49.8038H74.9437V51.4246H73.9433V47.3272H74.9437V48.9631H75.3842L76.6151 47.3272H77.8501L76.2404 49.2888L77.9859 51.4246H76.685L75.45 49.8038Z" fill="white"/>
    <path d="M78.1094 49.338C78.1094 48.9366 78.1958 48.5756 78.3688 48.255C78.5416 47.9318 78.7845 47.6844 79.0974 47.5127C79.4103 47.3386 79.7698 47.2515 80.176 47.2515C80.777 47.2515 81.2641 47.4294 81.6374 47.7854C82.0134 48.1414 82.2164 48.6135 82.2466 49.2017L82.2508 49.4176C82.2508 49.8215 82.1657 50.1825 81.9955 50.5006C81.8281 50.8187 81.5866 51.0649 81.271 51.2391C80.9581 51.4133 80.5959 51.5004 80.1842 51.5004C79.5557 51.5004 79.0521 51.3085 78.6734 50.9248C78.2974 50.5385 78.1094 50.0247 78.1094 49.3835V49.338ZM79.1097 49.4176C79.1097 49.8392 79.2044 50.1699 79.3938 50.4097C79.5832 50.6471 79.8466 50.7657 80.1842 50.7657C80.5218 50.7657 80.7839 50.6445 80.9705 50.4022C81.1598 50.1598 81.2545 49.8051 81.2545 49.338C81.2545 48.924 81.1571 48.5958 80.9622 48.3534C80.7701 48.1111 80.508 47.9899 80.176 47.9899C79.8494 47.9899 79.59 48.1098 79.3979 48.3497C79.2058 48.587 79.1097 48.9429 79.1097 49.4176Z" fill="white"/>
    <path d="M85.7417 50.2924L87.059 47.3272H88.3105V51.4246H87.3101V48.7132L86.0834 51.4246H85.4041L84.1732 48.6981V51.4246H83.1729V47.3272H84.4326L85.7417 50.2924Z" fill="white"/>
    <path d="M93.2134 51.4246H92.2131V48.0694H90.4758V51.4246H89.4755V47.3272H93.2134V51.4246Z" fill="white"/>
    <path d="M98.0628 47.3272V51.4246H97.0625V48.0694H95.8028L95.7204 49.4971C95.6683 50.1838 95.5242 50.6774 95.2882 50.9778C95.0549 51.2757 94.6968 51.4246 94.2138 51.4246H93.905L93.9009 50.6597L94.1067 50.6407C94.3263 50.613 94.4855 50.4905 94.5843 50.2734C94.6858 50.0538 94.7503 49.6549 94.7777 49.0767L94.8601 47.3272H98.0628Z" fill="white"/>
    <path d="M101.089 51.5004C100.455 51.5004 99.94 51.3173 99.5448 50.9513C99.1524 50.5827 98.9561 50.0929 98.9561 49.4819V49.3683C98.9561 48.9594 99.0412 48.5945 99.2114 48.2739C99.3843 47.9508 99.6258 47.6996 99.9359 47.5203C100.246 47.3411 100.592 47.2515 100.973 47.2515C101.58 47.2515 102.048 47.4294 102.377 47.7854C102.709 48.1414 102.875 48.645 102.875 49.2964V49.6675H99.9647C99.9949 50.0058 100.117 50.2734 100.331 50.4703C100.548 50.6673 100.82 50.7657 101.146 50.7657C101.605 50.7657 101.978 50.5953 102.266 50.2545L102.805 50.7278C102.627 50.9727 102.388 51.1633 102.089 51.2997C101.793 51.4335 101.459 51.5004 101.089 51.5004ZM100.969 47.9899C100.695 47.9899 100.472 48.0783 100.302 48.255C100.135 48.4317 100.028 48.6779 99.9812 48.9934H101.887V48.9253C101.865 48.6173 101.776 48.385 101.62 48.2285C101.463 48.0694 101.246 47.9899 100.969 47.9899Z" fill="white"/>
    <path d="M105.238 49.8038H104.732V51.4246H103.731V47.3272H104.732V48.9631H105.172L106.403 47.3272H107.638L106.029 49.2888L107.774 51.4246H106.473L105.238 49.8038Z" fill="white"/>
    <path d="M110.088 50.7657C110.337 50.7657 110.545 50.6988 110.709 50.565C110.874 50.4312 110.962 50.2658 110.973 50.0689H111.915C111.904 50.3239 111.818 50.5625 111.656 50.7847C111.494 51.0043 111.275 51.1785 110.997 51.3072C110.72 51.436 110.421 51.5004 110.1 51.5004C109.477 51.5004 108.983 51.3148 108.618 50.9437C108.253 50.5726 108.07 50.0601 108.07 49.4062V49.3115C108.07 48.688 108.252 48.1893 108.614 47.8157C108.976 47.4395 109.47 47.2515 110.096 47.2515C110.625 47.2515 111.056 47.3941 111.388 47.6794C111.723 47.9621 111.899 48.3345 111.915 48.7965H110.973C110.962 48.5617 110.874 48.3686 110.709 48.2171C110.547 48.0656 110.34 47.9899 110.088 47.9899C109.764 47.9899 109.514 48.0985 109.338 48.3156C109.163 48.5302 109.074 48.8571 109.071 49.2964V49.4441C109.071 49.8884 109.157 50.2204 109.33 50.44C109.506 50.6572 109.758 50.7657 110.088 50.7657Z" fill="white"/>
</svg>
