<svg width="21" height="21" viewBox="0 0 21 21" fill="none" xmlns="http://www.w3.org/2000/svg">
<path d="M19.6876 18.7593L16.6104 15.6828C17.4328 14.6244 17.8208 13.2923 17.6954 11.9578C17.5701 10.6234 16.9408 9.38682 15.9357 8.50002C14.9307 7.61323 13.6254 7.14286 12.2857 7.1847C10.946 7.22653 9.67261 7.77743 8.72484 8.7252C7.77706 9.67298 7.22617 10.9464 7.18433 12.2861C7.1425 13.6258 7.61286 14.9311 8.49966 15.9361C9.38645 16.9412 10.623 17.5705 11.9575 17.6958C13.2919 17.8211 14.624 17.4331 15.6825 16.6108L18.7596 19.6873L19.6876 18.7593ZM12.4688 16.406C11.69 16.406 10.9288 16.1751 10.2813 15.7424C9.63374 15.3098 9.12906 14.6948 8.83104 13.9753C8.53302 13.2559 8.45504 12.4642 8.60697 11.7004C8.7589 10.9366 9.13391 10.235 9.68458 9.68429C10.2352 9.13362 10.9368 8.75861 11.7006 8.60668C12.4644 8.45475 13.2561 8.53273 13.9756 8.83075C14.6951 9.12877 15.3101 9.63345 15.7427 10.281C16.1754 10.9285 16.4063 11.6898 16.4063 12.4685C16.4051 13.5124 15.9899 14.5133 15.2517 15.2514C14.5135 15.9896 13.5127 16.4048 12.4688 16.406Z" fill="#484C51"/>
<path d="M1.3125 7.875H6.5625V9.1875H1.3125V7.875Z" fill="#484C51"/>
<path d="M1.3125 1.3125H11.8125V2.625H1.3125V1.3125Z" fill="#484C51"/>
<path d="M1.3125 4.59375H11.8125V5.90625H1.3125V4.59375Z" fill="#484C51"/>
</svg>
