<svg width="18" height="16" viewBox="0 0 18 16" fill="none" xmlns="http://www.w3.org/2000/svg">
<path d="M10 0.5C8.01088 0.5 6.10322 1.29018 4.6967 2.6967C3.29018 4.10322 2.5 6.01088 2.5 8H0L3.33333 11.3333L6.66667 8H4.16667C4.16667 6.4529 4.78125 4.96917 5.87521 3.87521C6.96917 2.78125 8.4529 2.16667 10 2.16667C11.5471 2.16667 13.0308 2.78125 14.1248 3.87521C15.2188 4.96917 15.8333 6.4529 15.8333 8C15.8333 9.5471 15.2188 11.0308 14.1248 12.1248C13.0308 13.2188 11.5471 13.8333 10 13.8333C8.75 13.8333 7.575 13.4167 6.61667 12.75L5.41667 13.95C6.73465 14.9524 8.34411 15.4967 10 15.5C11.9891 15.5 13.8968 14.7098 15.3033 13.3033C16.7098 11.8968 17.5 9.98912 17.5 8C17.5 6.01088 16.7098 4.10322 15.3033 2.6967C13.8968 1.29018 11.9891 0.5 10 0.5Z" fill="#484C51"/>
</svg>
